/* XPM */
static const char *cpuIcon[]={
"16 16 15 1",
". c #008000",
"# c #63c659",
"a c #69cc61",
"c c #6ecf68",
"d c #72d36d",
"e c #76d672",
"b c #79d877",
"f c #7cdb7b",
"g c #7fdd7e",
"h c #81df82",
"i c #84e185",
"j c #86e388",
"k c #88e58b",
"l c #8ae78e",
"m c #8ce891",
"................",
".##############.",
".abbbbbbbbbbbba.",
".cbbbbbbbbbbbbb.",
".d...b...b.b.bb.",
".e.b.b.b.b.b.bb.",
".b.bbb.b.b.b.bb.",
".f.bbb.b.b.b.bb.",
".g.bbb.b.b.b.bb.",
".h.bbb...b.b.bb.",
".i.b.b.bbb.b.bb.",
".j...b.bbb...bb.",
".kbbbbbbbbbbbbb.",
".lbbbbbbbbbbbbb.",
".mbbbbbbbbbbbbm.",
"................"};
