/* XPM */
static const char *disassemblyIcon[] = {
/* width height ncolors chars_per_pixel */
"16 16 37 1",
/* colors */
"  c #B7EDFC",
". c #87B8E4",
"X c #CCFAF9",
"o c #1C79CD",
"O c #A0D9FC",
"+ c #AAE0FF",
"@ c #A4DCFC",
"# c #9DD8F8",
"$ c #B2E8FC",
"% c #0F71C9",
"& c #93CFF8",
"* c #B5EDF8",
"= c #CDFFFF",
"- c #ABE4F8",
"; c #B2EBF8",
": c #ACE4FC",
"> c #DD3614",
", c #BDF0FF",
"< c #BAF0FC",
"1 c #BEF3FC",
"2 c #9DD6FC",
"3 c #A7DDFF",
"4 c #96D2F8",
"5 c #A7E0F8",
"6 c #78AFE1",
"7 c #C6F9FF",
"8 c #A8E0FC",
"9 c #9AD5F8",
"0 c #B2E7FF",
"q c #A1DCF8",
"w c #CAFCFF",
"e c #1E7ACD",
"r c #AFE8F8",
"t c #1A78CC",
"y c #C1F6FC",
"u c #0068C6",
"i c None",
/* pixels */
".euuuuuuuuuuuu%6",
"eteeeeeeeeeeeeo%",
"eteeeeeeeeeeeeo%",
"e&33333ee3@@@32%",
"e&333>>>>>@@@32%",
"e&eee>>ee>>eee2%",
"e4+++>>ee+>>:+O%",
"e9eee>>ee:>>ee@%",
"e#000>>ee0>>$08%",
"eqeee>>ee:>>ee:%",
"e5,,,>>ee,>>1,$%",
"e-eee>>ee>>eee %",
"er777>>>>>7777<%",
"e;wwwwweewXXXw1%",
"e*=====ee=XXX=y%",
".euuuuuuuuuuuu%6"
};
