/* XPM */
static const char *pidIcon[]={
"16 16 15 1",
". c #008000",
"# c #63c659",
"a c #69cc61",
"c c #6ecf68",
"d c #72d36d",
"e c #76d672",
"b c #79d877",
"f c #7cdb7b",
"g c #7fdd7e",
"h c #81df82",
"i c #84e185",
"j c #86e388",
"k c #88e58b",
"l c #8ae78e",
"m c #8ce891",
"................",
".##############.",
".abbbbbbbbbbbba.",
".cbbbbbbbbbbbbb.",
".d...b...b..bbb.",
".e.b.bb.bb.b.bb.",
".b.b.bb.bb.b.bb.",
".f.b.bb.bb.b.bb.",
".g...bb.bb.b.bb.",
".h.bbbb.bb.b.bb.",
".i.bbbb.bb.b.bb.",
".j.bbb...b..bbb.",
".kbbbbbbbbbbbbb.",
".lbbbbbbbbbbbbb.",
".mbbbbbbbbbbbbm.",
"................"};
