/* XPM */
static const char *propertyIcon[] = {
/* width height ncolors chars_per_pixel */
"16 16 29 1",
/* colors */
"  c #87B8E4",
". c #1C79CD",
"X c #AAE0FF",
"o c #C2F5FF",
"O c #AEE3FF",
"+ c #9DD8F8",
"@ c #0F71C9",
"# c #93CFF8",
"$ c #B5EDF8",
"% c #CDFFFF",
"& c #ABE4F8",
"* c #B2EBF8",
"= c #BDF0FF",
"- c #B7ECFF",
"; c red",
": c #A7DDFF",
"> c #96D2F8",
", c #A7E0F8",
"< c #78AFE1",
"1 c #C6F9FF",
"2 c #9AD5F8",
"3 c #B2E7FF",
"4 c #A1DCF8",
"5 c #CAFCFF",
"6 c #1E7ACD",
"7 c #AFE8F8",
"8 c #1A78CC",
"9 c #0068C6",
"0 c None",
/* pixels */
" 6999999999999@<",
"68666666666666.@",
"68666666666666.@",
"6#:::::66::::::@",
"6#:::;;;;;;::::@",
"6#666;;66:;;66:@",
"6>XXX;;66X;;XXX@",
"62666;;66O;;66O@",
"6+333;;;;;;3333@",
"64666;;66-6666-@",
"6,===;;66======@",
"6&666;;66o6666o@",
"67111;;66111111@",
"6*5555566555555@",
"6$%%%%%66%%%%%%@",
" 6999999999999@<"
};
