/* XPM */ 
static const char * SeparateCpuIcon[] = {
"16 16 14 1",
" 	c None",
"!	c #87B8E4",
"#	c #1E7ACD",
"$	c #0068C6",
"%	c #0F71C9",
"&	c #78AFE1",
"'	c #93CFF8",
"(	c #DD3614",
")	c #96D2F8",
"*	c #9DD6FC",
"+	c #A4DCFC",
",	c #ACE4FC",
"-	c #AFE8F8",
".	c #B7EDFC",
"!#$$$$$$$$$$$$%&",
"#''''''''''''''%",
"#''''''''''''''%",
"#''(('((''('(''%",
"#'('''('('('(''%",
"#'('''('('('(''%",
"#)()))()()()())%",
"#*(***(*(*(*(**%",
"#+(+++(+(+(+(++%",
"#+(+++(+(+(+(++%",
"#,,((,((,,(((,,%",
"#,,,,,(,,,,,,,,%",
"#-----(--------%",
"#..............%",
"#..............%",
"!#$$$$$$$$$$$$%&"};
