/* XPM */
static const char *sessionDiffIcon[] = {
/* width height ncolors chars_per_pixel */
"16 16 28 1",
/* colors */
"  c #87B8E4",
". c #1C79CD",
"X c #AAE0FF",
"o c #C2F5FF",
"O c #AEE3FF",
"+ c #9DD8F8",
"@ c #0F71C9",
"# c #93CFF8",
"$ c #B5EDF8",
"% c #CDFFFF",
"& c #ABE4F8",
"* c #B2EBF8",
"= c #BDF0FF",
"- c #B7ECFF",
"; c #A7DDFF",
": c #96D2F8",
"> c #A7E0F8",
", c #78AFE1",
"< c #C6F9FF",
"1 c #9AD5F8",
"2 c #B2E7FF",
"3 c #A1DCF8",
"4 c #CAFCFF",
"5 c #1E7ACD",
"6 c #AFE8F8",
"7 c #1A78CC",
"8 c #0068C6",
"9 c None",
/* pixels */
" 5888888888888@,",
"57555555555555.@",
"57555555555555.@",
"5#;;;;;55;;;;;;@",
"5#;;;;;55;;;;;;@",
"5#5555;55;5555;@",
"5:XXXXX55XXXXXX@",
"515555O55O5555O@",
"5+2222255222222@",
"535555-55-5555-@",
"5>=====55======@",
"5&5555455o5555o@",
"56<<<<455<<<<<<@",
"5*4444455444444@",
"5$%%%%%55%%%%%%@",
" 5888888888888@,"
};
