/* XPM */
static const char *SideBySideIcon[] = {
/* width height ncolors chars_per_pixel */
"16 16 14 1",
/* colors */
"  c #88E58B",
". c #76D672",
"X c #8CE891",
"o c #72D36D",
"O c #84E185",
"+ c #81DF82",
"@ c #7FDD7E",
"# c #7CDB7B",
"$ c yellow",
"% c #69CC61",
"& c #79D877",
"* c #008000",
"= c #6ECF68",
"- c None",
/* pixels */
"%**************%",
"****************",
"*%%%%%%%%%%%%%%*",
"*=**=$$=**=$$==*",
"*oooooooooooooo*",
"*.**.$$.**.$$..*",
"*&&&&&&&&&&&&&&*",
"*#**#$$#**#$$##*",
"*#@@#@@####@@##*",
"*+**+$$+**+$$++*",
"*OOOOOOOOOOOOOO*",
"* ** $$ ** $$  *",
"*              *",
"* ** $$ ** $$  *",
"*XXXXXXXXXXXXXX*",
"%**************%"
};
