/* XPM */
static const char *amdArrowLogo[] = {
/* width height ncolors chars_per_pixel */
"16 16 3 1",
/* colors */
"  c black",
". c #008000",
"X c None",
/* pixels */
"................",
" ...............",
"  ..............",
"   .............",
"    ............",
"    .      .....",
"   ..      .....",
"  ...      .....",
" ....      .....",
".....      .....",
".....      .....",
"................",
"..........  ....",
".........    ...",
"........      ..",
".......        ."
};
